<svg width="30" height="30" viewBox="0 0 30 30" fill="none" xmlns="http://www.w3.org/2000/svg">
<path fill-rule="evenodd" clip-rule="evenodd" d="M20.7242 10.0538L9.89683 20.8812L8.96875 19.9531L19.7962 9.12572L20.7242 10.0538Z" fill="#05091D"/>
<path fill-rule="evenodd" clip-rule="evenodd" d="M19.3254 9.5887C17.1428 11.7712 17.2787 15.474 19.3254 17.5207L19.7894 17.9847L20.7175 17.0566L20.2534 16.5926C18.6995 15.0387 18.6031 12.1672 20.2534 10.5168L20.7172 10.053L19.7892 9.12491L19.3254 9.5887Z" fill="#05091D"/>
<path fill-rule="evenodd" clip-rule="evenodd" d="M20.2554 10.5109C18.0729 12.6935 14.3701 12.5576 12.3234 10.5109L11.8594 10.0469L12.7875 9.1188L13.2515 9.58284C14.8055 11.1368 17.677 11.2332 19.3273 9.58287L19.7911 9.11908L20.7192 10.0472L20.2554 10.5109Z" fill="#05091D"/>
</svg>
