<svg width="40" height="40" viewBox="0 0 40 40" fill="none" xmlns="http://www.w3.org/2000/svg">
<path fill-rule="evenodd" clip-rule="evenodd" d="M27.838 13.4025L13.4015 27.839L12.1641 26.6016L26.6006 12.165L27.838 13.4025Z" fill="white"/>
<path fill-rule="evenodd" clip-rule="evenodd" d="M25.9755 12.7784C23.0654 15.6885 23.2466 20.6255 25.9755 23.3544L26.5942 23.9731L27.8316 22.7357L27.2129 22.1169C25.141 20.0451 25.0124 16.2164 27.2129 14.0159L27.8313 13.3975L26.5939 12.16L25.9755 12.7784Z" fill="white"/>
<path fill-rule="evenodd" clip-rule="evenodd" d="M27.2182 14.0172C24.3081 16.9272 19.371 16.746 16.6422 14.0172L16.0234 13.3984L17.2609 12.161L17.8796 12.7797C19.9515 14.8517 23.7802 14.9803 25.9807 12.7798L26.5991 12.1614L27.8365 13.3988L27.2182 14.0172Z" fill="white"/>
</svg>
