<svg width="31" height="31" viewBox="0 0 31 31" fill="none" xmlns="http://www.w3.org/2000/svg">
<path d="M29.9414 23.4258L28.5352 29.3438C28.3594 30.2227 27.6562 30.8086 26.7773 30.8086C12.0117 30.75 0 18.7383 0 3.97266C0 3.09375 0.527344 2.39062 1.40625 2.21484L7.32422 0.808594C8.14453 0.632812 9.02344 1.10156 9.375 1.86328L12.1289 8.25C12.4219 9.01172 12.2461 9.89062 11.6016 10.3594L8.4375 12.9375C10.4297 16.9805 13.7109 20.2617 17.8125 22.2539L20.3906 19.0898C20.8594 18.5039 21.7383 18.2695 22.5 18.5625L28.8867 21.3164C29.6484 21.7266 30.1172 22.6055 29.9414 23.4258Z" fill="white"/>
</svg>
